# xmcd
#
# Track frame offsets: 
#        150
#        5372
#        24107
#        41765
#        58267
#        76322
#        93122
#        117030
#        142150
#        161665
#        175762
#        190475
#        210072
#        224250
#        254341
#
# Disc length: 3680 seconds
#
# Revision: 1
# Processed by: cddbd v1.5.2PL0 Copyright (c) Steve Scherf et al.
# Submitted via: ExactAudioCopy v1.1
#
DISCID=c20e5e0f
DTITLE=Vargas Blues Band - Blues Latino
DYEAR=1994
DGENRE=Blues Rock
TTITLE0=El Alma
TTITLE1=Rock Away The Blues
TTITLE2=Coward's Knife
TTITLE3=Brand New Blues
TTITLE4=Out Of The Blues
TTITLE5=Hot Wires
TTITLE6=Do You Believe In Love?
TTITLE7=Blues Latino
TTITLE8=Magic Of The Goods
TTITLE9=Amapola Negra
TTITLE10=Fear
TTITLE11=Mexico City Blues
TTITLE12=Pachuco Boogie - Jeff's Boogie (Medley)
TTITLE13=Blues Latino (Live Madrid - Chicago)
TTITLE14=Blues Latino (All Around Blues)
EXTD=
EXTT0=
EXTT1=
EXTT2=
EXTT3=
EXTT4=
EXTT5=
EXTT6=
EXTT7=
EXTT8=
EXTT9=
EXTT10=
EXTT11=
EXTT12=
EXTT13=
EXTT14=
PLAYORDER=
